<?xml version="1.0" encoding="UTF-8"?>
<svg xmlns="http://www.w3.org/2000/svg" xmlns:xlink="http://www.w3.org/1999/xlink" viewBox="95 360 700 155">
  <defs>
    <style>
      .cls-1 {
        opacity: .48;
      }

      .cls-1, .cls-2 {
        fill: #9bae9b;
      }

      .cls-3 {
        fill: url(#linear-gradient-3);
      }

      .cls-3, .cls-4, .cls-5, .cls-6, .cls-7, .cls-8, .cls-9, .cls-10, .cls-11, .cls-12, .cls-13, .cls-14, .cls-15, .cls-16 {
        mix-blend-mode: color-dodge;
      }

      .cls-4 {
        fill: url(#radial-gradient-7);
      }

      .cls-17, .cls-18 {
        font-size: 60px;
      }

      .cls-17, .cls-18, .cls-19 {
        font-family: Georgia-Bold, Georgia;
        font-weight: 700;
      }

      .cls-17, .cls-20, .cls-21, .cls-22, .cls-19 {
        fill: #fff;
      }

      .cls-23 {
        fill: #647167;
      }

      .cls-24 {
        stroke: #fff;
      }

      .cls-24, .cls-25, .cls-26 {
        fill: none;
      }

      .cls-24, .cls-26 {
        stroke-miterlimit: 10;
      }

      .cls-18 {
        fill: #fcee23;
      }

      .cls-27 {
        fill: #90392b;
      }

      .cls-28 {
        fill: #c7702e;
      }

      .cls-29 {
        fill: #7a93a9;
      }

      .cls-30 {
        fill: #2f6c98;
      }

      .cls-5 {
        fill: url(#linear-gradient-5);
      }

      .cls-31 {
        fill: #4f3d4f;
      }

      .cls-32 {
        fill: #c8d3c8;
      }

      .cls-33 {
        fill: #3c4d58;
      }

      .cls-34 {
        fill: #506170;
      }

      .cls-6 {
        fill: url(#linear-gradient-7);
      }

      .cls-7 {
        fill: url(#radial-gradient-3);
      }

      .cls-8 {
        fill: url(#radial-gradient);
      }

      .cls-20 {
        mix-blend-mode: soft-light;
      }

      .cls-9 {
        fill: url(#radial-gradient-5);
      }

      .cls-21 {
        opacity: .57;
      }

      .cls-10 {
        fill: url(#linear-gradient-6);
      }

      .cls-35 {
        fill: #f6ec38;
      }

      .cls-36 {
        fill: #abb9c7;
      }

      .cls-37 {
        fill: #5b665d;
      }

      .cls-38 {
        fill: url(#linear-gradient-8);
        mix-blend-mode: multiply;
      }

      .cls-25 {
        isolation: isolate;
      }

      .cls-11 {
        fill: url(#linear-gradient-2);
      }

      .cls-39 {
        fill: #e1e5de;
      }

      .cls-26 {
        stroke: #fcee23;
      }

      .cls-40 {
        fill: #b5c2b5;
      }

      .cls-41 {
        fill: #8d798a;
      }

      .cls-42 {
        fill: #7f8a7f;
      }

      .cls-43 {
        opacity: .54;
      }

      .cls-43, .cls-44 {
        fill: #fbb043;
      }

      .cls-45 {
        fill: #10486b;
      }

      .cls-12 {
        fill: url(#radial-gradient-4);
      }

      .cls-46 {
        fill: #672414;
      }

      .cls-22 {
        opacity: .35;
      }

      .cls-13 {
        fill: url(#radial-gradient-6);
      }

      .cls-47 {
        fill: #72291b;
      }

      .cls-48 {
        fill: #813020;
      }

      .cls-49 {
        fill: #f89522;
      }

      .cls-14 {
        fill: url(#linear-gradient-4);
      }

      .cls-19 {
        font-size: 36px;
      }

      .cls-50 {
        fill: #6d566b;
      }

      .cls-51 {
        fill: #b96c58;
      }

      .cls-15 {
        fill: url(#linear-gradient);
      }

      .cls-16 {
        fill: url(#radial-gradient-2);
      }
    </style>
    <radialGradient id="radial-gradient" cx="131.09" cy="505.43" fx="131.09" fy="505.43" r="59.56" gradientTransform="translate(172.14 -62.91) rotate(19.3)" gradientUnits="userSpaceOnUse">
      <stop offset="0" stop-color="#fff"/>
      <stop offset="1" stop-color="#010101"/>
    </radialGradient>
    <linearGradient id="linear-gradient" x1="159.19" y1="491.61" x2="174.47" y2="513.28" gradientTransform="translate(172.03 -62.6) rotate(19.3)" gradientUnits="userSpaceOnUse">
      <stop offset="0" stop-color="#010101"/>
      <stop offset=".12" stop-color="#171717"/>
      <stop offset=".36" stop-color="#525252"/>
      <stop offset=".72" stop-color="#afafaf"/>
      <stop offset="1" stop-color="#fff"/>
    </linearGradient>
    <linearGradient id="linear-gradient-2" x1="111.24" y1="490.46" x2="111.12" y2="521.25" xlink:href="#linear-gradient"/>
    <linearGradient id="linear-gradient-3" x1="168.11" y1="510.82" x2="159.39" y2="510.35" xlink:href="#linear-gradient"/>
    <linearGradient id="linear-gradient-4" x1="105.97" y1="511" x2="113.66" y2="509.51" xlink:href="#linear-gradient"/>
    <radialGradient id="radial-gradient-2" cx="136.96" cy="467.54" fx="136.96" fy="467.54" r="12.39" gradientTransform="translate(172.14 -62.91) rotate(19.3)" gradientUnits="userSpaceOnUse">
      <stop offset="0" stop-color="#fff"/>
      <stop offset="1" stop-color="#010101"/>
    </radialGradient>
    <linearGradient id="linear-gradient-5" x1="95.94" y1="461.26" x2="120.31" y2="461.26" xlink:href="#linear-gradient"/>
    <linearGradient id="linear-gradient-6" x1="153.72" y1="460.86" x2="178.41" y2="460.86" xlink:href="#linear-gradient"/>
    <radialGradient id="radial-gradient-3" cx="165.15" cy="470.43" fx="165.15" fy="470.43" r="20.63" xlink:href="#radial-gradient-2"/>
    <radialGradient id="radial-gradient-4" cx="98.39" cy="470.52" fx="98.39" fy="470.52" r="20.64" xlink:href="#radial-gradient-2"/>
    <radialGradient id="radial-gradient-5" cx="138.94" cy="509.29" fx="138.94" fy="509.29" r="5.71" xlink:href="#radial-gradient-2"/>
    <linearGradient id="linear-gradient-7" x1="136.05" y1="492.61" x2="138.02" y2="501.32" xlink:href="#linear-gradient"/>
    <radialGradient id="radial-gradient-6" cx="125.72" cy="392.74" fx="125.72" fy="392.74" r="35.8" xlink:href="#radial-gradient-2"/>
    <linearGradient id="linear-gradient-8" x1="146.76" y1="407.26" x2="135.87" y2="429.04" gradientTransform="translate(172.03 -62.6) rotate(19.3)" gradientUnits="userSpaceOnUse">
      <stop offset="0" stop-color="#fff"/>
      <stop offset="1" stop-color="#010101"/>
    </linearGradient>
    <radialGradient id="radial-gradient-7" cx="82.58" cy="452.38" fx="82.58" fy="452.38" r="64.74" gradientTransform="translate(172.14 -62.91) rotate(19.3)" gradientUnits="userSpaceOnUse">
      <stop offset="0" stop-color="#fff"/>
      <stop offset=".28" stop-color="#afafaf"/>
      <stop offset=".64" stop-color="#525252"/>
      <stop offset=".88" stop-color="#171717"/>
      <stop offset="1" stop-color="#010101"/>
    </radialGradient>
  </defs>
  <g class="cls-25">
    <g id="Layer_1" data-name="Layer 1">
      <g>
        <g>
          <text class="cls-17" transform="translate(200.94 434.54)"><tspan x="0" y="0">Start</tspan></text>
          <text class="cls-19" transform="translate(250.54 497.94)"><tspan x="0" y="0">Free Business Guides</tspan></text>
          <g>
            <line class="cls-24" x1="198.37" y1="457.37" x2="342.74" y2="457.37"/>
            <line class="cls-26" x1="342.74" y1="457.37" x2="724.34" y2="457.37"/>
          </g>
          <text class="cls-18" transform="translate(363.53 434.54)"><tspan x="0" y="0">Business AI</tspan></text>
        </g>
        <g>
          <path class="cls-20" d="m109.84,517.51c.91-3.53,1.82-7.07,2.73-10.6-2.02,13.25-4.79,26.54-8.28,39.71,4.41-12.18,8.81-24.35,13.22-36.53-.44,4.11-1.4,8.29-2.82,12.3,4.48-6.91,8.64-13.67,12.58-21.07.07,3.38-.61,7.03-1.94,10.39,4.18-10.55,11.01-19.46,15.97-29.45,2.15-4.34,4.14-8.9,5.12-13.63.98-4.74.85-9.71-1.04-12.95-.78-1.35-1.84-2.36-2.97-3.17-5.23-3.73-11.32-5.18-18.07-.34-10.99,7.89-12.11,22.81-12.76,35.98-.41,8.32.4,21.09-1.74,29.36Z"/>
          <path class="cls-8" d="m110.55,517.76c.98-3.51,1.96-7.02,2.94-10.53-2.58,13.05-5.75,26.2-9.48,39.29,4.37-12.19,8.75-24.37,13.13-36.56-.65,4.03-1.72,8.17-3.14,12.19,4.04-7.06,7.82-13.96,11.47-21.46-.2,3.29-1.01,6.89-2.31,10.27,4.08-10.59,10.11-19.77,14.76-29.88,2.02-4.38,3.92-8.98,5.05-13.66,1.13-4.68,1.39-9.52.15-12.54-.51-1.25-1.27-2.16-2.1-2.86-3.83-3.24-8.51-4.2-14.18,1.03-9.23,8.51-11.23,23.12-12.72,35.99-.94,8.13-1.27,20.51-3.57,28.72Z"/>
          <path class="cls-20" d="m117.81,494.75c.51-2.4,1.03-4.8,1.54-7.2-.58,9.14-1.88,18.23-3.89,27.17,2.99-8.14,5.98-16.27,8.98-24.41,0,2.85-.49,5.7-1.45,8.39,3.6-4.41,6.92-8.76,9.95-13.57.42,2.39.13,4.9-.8,7.13,2.94-7.01,8.61-12.59,12.36-19.13,1.63-2.84,3.07-5.85,3.53-9.09.46-3.24-.18-6.76-2.34-9.25-.89-1.03-2.01-1.85-3.19-2.54-5.43-3.17-11.45-4.82-17.45-2.1-9.78,4.44-9.32,14.85-8.59,24.07.46,5.83,2.56,14.92,1.35,20.54Z"/>
          <path class="cls-43" d="m138.55,455.2c-8.68-3.78-17.68-2.3-20.69,7.73-.9,3-1.81,5.9-2.22,9.03-.32,2.41.44,5.93-.26,8.13.5-1.58,1.54-2.97,2.91-3.9.53,6.06.42,12.17-.33,18.21,6.08-6.69,11.09-14.34,14.8-22.59.28,3.8-.13,7.65-1.22,11.31,5.09-1.38,8.48-6.07,11.24-10.56,2.18-3.54,4.28-7.85,2.66-11.67-1.19-2.81-4.09-4.48-6.89-5.7Z"/>
          <g>
            <g>
              <path class="cls-32" d="m123.96,431.43s3.55-15.52,9.68-26.19c6.13-10.68,13.03-21.09,13.03-21.09l5.36-7.01,7.16-7.75,4.61-4.37s1.71-1.45,3.53-.81,2.58,1.42,3.22,3.01c.64,1.59,1.52,10.79,1.52,10.79,0,0,.45,14.35-.69,25.41-1.14,11.06-4.38,22.75-4.38,22.75l-7.17,18.52-8.16,6.21s-7.21.56-15.77-3.3c-8.57-3.86-10.57-6.44-10.57-6.44l-1.38-9.72Z"/>
              <path class="cls-40" d="m116.65,452.3s5.19,4.47,14.54,8.06c8.98,3.44,14,3.77,14,3.77l9.39.95-.3-13.79s-8.33.84-18.37-3.7c-10.04-4.54-11.9-6.56-11.9-6.56l-8.55,8.29s-1.24,1.1,1.18,2.98Z"/>
              <path class="cls-40" d="m139.68,393.84s-8.77,3.08-14.77,8c-6,4.91-10.44,8.83-10.44,8.83l-6.8,7.2-4.06,5.25s-.3,2.8.65,4.5c.94,1.7,1.58,3.8,1.58,3.8,0,0,4.95.02,9.5-.27,4.55-.29,9.01-1.8,9.01-1.8,0,0,1.38-6.87,6.08-17.37,4.7-10.5,9.26-18.14,9.26-18.14Z"/>
              <path class="cls-40" d="m171.38,404.43s4.43,7.37,7.53,18.54c3.1,11.17,2.52,19.18,2.52,19.18l.14,7.91s-.95,2.23-2.5,3.23c-1.55,1-4.62,1.97-4.62,1.97,0,0-5.55-4.17-7.46-6.03-1.91-1.87-5.92-7.03-5.92-7.03,0,0,4-8,5.96-16.04,1.96-8.04,4.36-21.73,4.36-21.73Z"/>
              <path class="cls-50" d="m125.38,431.07s.64-1.82,1.64-2.45c1-.62,2.34-.84,2.34-.84,0,0,1.92.09,2.8,1.18.88,1.09,1.25,1.71,1.36,2.52.1.82.11,2.18-.28,3.02-.39.84-1.55,2.19-1.91,3.52-.37,1.33-.54,2.93-.54,2.93,0,0-.39,1.13-1.28,1.7-.88.57-2.16.32-2.16.32l-1.24-.92,2.42-2.17s1.36-3.32,1.9-4.59c.54-1.27,1.38-2.83,1.38-2.83,0,0-.33-1.28-1.19-1.88-.86-.59-2.06-.52-2.06-.52l-.9.07-2.28.95Z"/>
              <path class="cls-50" d="m158.73,442.65s1.22-1.81.14-3.75c-1.08-1.94-3.05-2.14-3.05-2.14,0,0-2.44.02-3.51,1.11-1.06,1.09-1.47,1.14-1.75,2.21-.28,1.07-.43,3.45-.43,3.45l-1.05,2.46-.99,1.7s-.1,1.13.53,1.84c.63.71,1.38,1.07,1.38,1.07l1.25.05-.57-2.83s.92-2.89,1.47-4.75c.55-1.85.63-3.19.63-3.19,0,0,.71-.92,1.81-.73,1.1.19,2,.7,2,.7l.83.68,1.31,2.11Z"/>
              <path class="cls-40" d="m111.59,469.94l5.06-17.64s1.25-2.12,4.42-5.56c3.17-3.44,7.46-6.88,7.46-6.88l3.28-7.42s.05-1.26-1.19-1.88c-1.25-.61-2.96-.45-2.96-.45l-3.71,1.32s-8.91,3.96-13.62,7.46c-4.71,3.5-7.18,5.37-7.18,5.37l-.27,5.97,1.52,9.93,1.69,7.72s2.66,3.66,5.49,2.07Z"/>
              <path class="cls-40" d="m150.69,447.82s1.22,5.63,1.6,10.61c.38,4.98.4,6.2.4,6.2l-4.65,11.1-2.9,6.56s1.34.92,2.74,1.26c1.4.34,3.53-.13,3.53-.13l6.56-5.74,7.02-6.63,2.87-4.3s-.75-3.9-3.4-11.5c-2.65-7.59-7.03-14.73-7.03-14.73,0,0-2.59-2.44-4.64-.65-.21,2.58-2.1,7.94-2.1,7.94Z"/>
              <path class="cls-42" d="m110.5,449.57s4.11-4.71,9.38-8.93c5.26-4.22,11.94-8.19,11.94-8.19l-1.99,3.82-1.3,3.6-7.05,6.44-3.68,4.3-1.49,1.56-.67,3.27-4.29,14.97s-1.24-5.64-1.33-11.07c-.09-5.43.49-9.77.49-9.77Z"/>
              <path class="cls-42" d="m152.79,439.89s-.4,2.88-.75,4.21c-.35,1.33-1.35,3.72-1.35,3.72,0,0,1.01,3.37,1.6,10.61.59,7.24.4,6.2.4,6.2l-4.16,9.93-3.39,7.73s3.41-2.68,5.48-4.76c2.07-2.07,4.8-5.71,4.8-5.71l3.39-5.53s.03-6.48-1.55-12.53c-1.58-6.04-4.48-13.89-4.48-13.89Z"/>
              <path class="cls-2" d="m158.8,466.54s3.75.65,6.06.42c2.3-.23,2.98,0,2.98,0,0,0-2.19,3.24-5.34,6.73-3.15,3.49-8.43,7.57-8.43,7.57l-3.02,2.35s-2.33.22-3.69-.11c-1.37-.33-1.66-.96-1.66-.96,0,0,5.01-4.39,8.13-8.63,3.12-4.25,4.98-7.37,4.98-7.37Z"/>
              <path class="cls-2" d="m103.15,444.26s2.44,2.69,3.54,3.37c1.1.68,3.81,1.94,3.81,1.94,0,0-.79,3.9-.49,9.77.31,5.87.99,10.7.99,10.7,0,0-1.37.11-2.56-.3s-2.34-1.87-2.34-1.87l-2.63-12.32s-1.19-9.57-.32-11.29Z"/>
              <path class="cls-15" d="m158.8,466.54l5.03.8,4-.38s-2-9.15-4.09-14.18c-2.09-5.03-2.92-6.06-2.92-6.06l-4.81,1.87s1.48,4.67,2.16,9.06c.69,4.39.62,8.89.62,8.89Z"/>
              <path class="cls-11" d="m103.15,444.26s2,2.68,3.54,3.37c1.54.69,3.81,1.94,3.81,1.94,0,0,3.52-3.82,5.45-5.52,1.93-1.7,7.97-6.25,7.97-6.25l-5.61-3.45s-11.92,6.68-15.15,9.91Z"/>
              <path class="cls-3" d="m164.49,471.5s-1.21.43-2.07.33c-.86-.1-1.43-.22-1.43-.22l-3.34,3.15-2.19,2.29s.99.19,1.61.28c.62.09,1.55-.11,1.55-.11l5.88-5.73Z"/>
              <path class="cls-14" d="m102.98,449.96s.71,1.14,1.3,1.57c.59.43,1.25.66,1.25.66,0,0,.98,3.98,1.03,5.33.05,1.35.12,2.41.12,2.41l-1.52-.75-.96-.86s-1.45-6.44-1.22-8.36Z"/>
              <path class="cls-2" d="m126.58,428.5s2.31-9.57,5.66-17c3.34-7.43,10.34-19.36,10.34-19.36,0,0,9.27-13.35,9.27-13.36-.51.73,7.3,4.68,8,4.87,2.6.72,5.34,1.77,8.06,1.79.3,2.96-.2,6.23-.28,9.24-.65,7.78-2.92,23.15-2.92,23.15l-3.44,14.07-2.39,7,.53,2.13-.74,2.11,1.18,1.54s3.41-6.6,5.97-15.19c2.56-8.59,5.57-26.08,5.57-26.08l.77-13.21-.02-6.54s-6.35.6-12.26-1.17c-5.9-1.77-7.86-5.36-7.86-5.36,0,0-7.52,9.46-14.23,20.6s-10.56,22.54-10.56,22.54l-3.28,11.15,1.43-.36s-.04-2.41,1.2-2.57Z"/>
              <path class="cls-1" d="m161.65,382.96s-3.02,18.36-8.32,35.19c-5.3,16.83-11.96,29.91-11.96,29.91l7.25,1.47s-1.16-.67.07-2.47c1.22-1.8,1.36-5.16,1.36-5.16,0,0,.72-3.75,3.35-4.91,2.63-1.16,3.67.1,3.67.1l1.97,1.14s3.79-10.83,6.57-25.13c2.78-14.3,2.59-28.95,2.59-28.95,0,0-4.85.28-6.56-1.2Z"/>
              <path class="cls-29" d="m162.77,413.22c-2.11,6.02-8.69,9.19-14.71,7.08-6.02-2.11-9.19-8.69-7.08-14.71,2.11-6.02,8.69-9.19,14.71-7.08,6.02,2.11,9.19,8.69,7.08,14.71Z"/>
              <path class="cls-45" d="m160.79,412.53c-1.72,4.92-7.11,7.52-12.04,5.79-4.92-1.72-7.52-7.11-5.79-12.04s7.11-7.52,12.04-5.79,7.52,7.11,5.79,12.04Z"/>
              <path class="cls-30" d="m159.07,411.93c-1.39,3.98-5.74,6.07-9.72,4.68s-6.07-5.74-4.68-9.72,5.74-6.07,9.72-4.68,6.07,5.74,4.68,9.72Z"/>
              <path class="cls-16" d="m150.65,412.91c-2.33-.82-4.26-2.13-5.57-3.65-.33,3,1.43,5.94,4.41,6.98,2.97,1.04,6.18-.16,7.8-2.71-1.97.37-4.3.19-6.63-.62Z"/>
              <path class="cls-5" d="m139.68,393.84s-7.07,2.41-14.77,8c-7.71,5.59-11.72,9.72-11.72,9.72l-7.75,9.15-1.83,2.41,1.03-.12s4.84-4.23,11.59-9.38c6.75-5.15,15.07-9.16,15.07-9.16l3.74-1.65,4.65-8.96Z"/>
              <path class="cls-10" d="m171.38,404.43s4.03,5.59,5.61,10.1c1.58,4.51,2.57,9.6,2.57,9.6l1.77,11.89.23,14.05-.73-.79s-1.02-10.64-4.26-18.89c-3.24-8.25-6.91-15.27-6.91-15.27l1.71-10.69Z"/>
              <path class="cls-44" d="m162.91,366.1s3.27,1.94,4.51,2.37,3.25-.25,3.25-.25c0,0-.2-2.25-1.95-3.45-1.75-1.21-4.89-.72-5.8,1.33Z"/>
              <path class="cls-7" d="m169.58,448.54s1.97-1.11,4.31-3.25c2.33-2.14,3.52-3.67,3.52-3.67,0,0,.78,1.07,1.01,1.87.22.8.58,2.87.58,2.87,0,0-1.75,1.7-3.05,2.75-1.31,1.06-3.26,1.89-3.26,1.89,0,0-2.47-.58-3.1-2.46Z"/>
              <path class="cls-12" d="m112.33,418.93s-1.69.56-2.77,1.33c-1.08.78-1.22,1.19-1.22,1.19,0,0,.03,2.55.62,4.48.59,1.94,1.05,3.25,1.05,3.25,0,0,1.47.4,2.64.35,1.17-.05,1.62-.35,1.62-.35,0,0-2.03-6.7-1.94-10.25Z"/>
              <path class="cls-9" d="m132.96,460.73l.15-1.1.52-.51,5.74,2.36-.36,1.37s-5.89-1.6-6.06-2.12Z"/>
              <path class="cls-6" d="m133.82,447.08l-1.74,3.31s1.7,1.4,2.79,1.9c1.09.5,2.3.34,2.3.34l.74-1.47,2.15,1.1,1.65.23s.63-.82.67-1.26c.04-.45.08-.89.08-.89l-8.65-3.26Z"/>
              <path class="cls-13" d="m152.36,376.7s-.32.92,1.24,2.05c1.57,1.12,5.18,2.97,5.18,2.97l2.87,1.25s1.78-6.3,2.85-11l1.07-4.7-1.58-.44-1.09-.72s-7.84,6.81-10.55,10.59Z"/>
              <path class="cls-38" d="m167.42,368.47s1.08-1,1.01,6.13c-.07,7.12-.21,9.57-.21,9.57l4.27-.42-1.06-11.78-.75-3.73-3.25.25Z"/>
              <path class="cls-28" d="m164.16,365.04s1.08,1.19,3.35,1.63c2.26.45,3.05.53,3.05.53l.11,1.02s-1.56.15-3.69-.36c-2.13-.51-2.98-1.04-2.98-1.04l-.64-.8.81-.99Z"/>
              <path class="cls-21" d="m166.62,364.29c-.66-.03-1.32.23-1.79.68.8.77,2.04,1.06,3.1.72.13-.04.27-.1.34-.22.08-.12.07-.28.02-.42-.12-.37-.48-.62-.86-.72-.38-.1-.77-.07-1.16-.03h.34Z"/>
              <path class="cls-41" d="m154.24,437.17s-1.45.53-1.6,1.28c-.15.75.15,1.43.15,1.43,0,0,1.46-1.1,2.76-.53,1.3.57,2.22,1.24,2.22,1.24,0,0,1.67-.47,1.12-1.69-.56-1.22-2.77-2.8-4.64-1.73Z"/>
              <path class="cls-41" d="m128.44,427.91s-1.14.29-1.15.98c-.01.69.38,1.23.38,1.23,0,0,2-.41,2.96.45.96.86,1.19,1.88,1.19,1.88,0,0,1.83.3,1.7-.96-.13-1.27-2.11-4.5-5.08-3.58Z"/>
              <path class="cls-42" d="m130.01,442.52s6.34,3.6,10.59,4.98c4.25,1.37,7.85,1.6,7.85,1.6l1.94,1.72s-2.69.79-9.68-1.32c-6.99-2.1-8.75-3.64-8.75-3.64l-5.22-3.21s1.33.47,3.27-.12Z"/>
              <path class="cls-22" d="m156.3,404.79c-.42-.09-.89.21-.99.63-.1.42.19.89.61,1,.42.1.89-.18,1-.6.11-.42-.17-.9-.58-1.01-.01-.09,0-.18.04-.26l-.09.25Z"/>
              <path class="cls-22" d="m157.03,407.05c-.44-.1-.88,0-1.11.51-.12.28-.08.59-.07.89.05,1.17-.37,2.31-.77,3.42-.21.57-.39,1.25-.03,1.74.31.43.95.51,1.44.31.49-.19.86-.6,1.18-1.03.55-.74,1-1.58,1.15-2.49.15-.91-.03-1.9-.61-2.62-.26-.32-.72-.64-1.18-.75Z"/>
              <path class="cls-51" d="m151.82,377.55c.4,1.44,1.67,2.21,2.9,2.89,1.84,1.01,3.68,2.01,5.65,2.75,1.83.69,3.75,1.15,5.69,1.36,1,.11,2.01.15,3.01.13.95-.02,2.02-.01,2.93-.31.25-.08.29-.5-.03-.51-.85-.02-1.72.16-2.57.19-.91.03-1.82.01-2.73-.06-1.84-.15-3.65-.52-5.39-1.12-1.72-.59-3.36-1.39-5-2.19-1.48-.72-3.56-1.48-4.08-3.22-.07-.24-.46-.17-.39.08h0Z"/>
              <path class="cls-27" d="m151.97,377.12c.4,1.44,1.66,2.21,2.9,2.89,1.84,1.01,3.68,2.01,5.65,2.75,1.83.69,3.75,1.15,5.69,1.36,1,.11,2.01.15,3.01.13.95-.02,2.02-.01,2.93-.31.25-.08.29-.5-.03-.51-.85-.02-1.72.16-2.57.19-.91.03-1.82.01-2.73-.06-1.84-.15-3.65-.52-5.39-1.12-1.72-.59-3.36-1.39-5-2.19-1.48-.72-3.56-1.48-4.08-3.22-.07-.24-.46-.17-.39.08h0Z"/>
              <path class="cls-42" d="m164.28,364.88c1.07-.6,2.35-.77,3.51-.31,1.21.48,1.9,1.42,2.4,2.57.11.26.56.12.48-.16-.76-2.82-4.18-3.88-6.6-2.52-.26.15-.06.56.2.42h0Z"/>
              <path class="cls-47" d="m163.02,365.63c.27,1.2,1.64,1.89,2.69,2.32,1.43.59,2.97.8,4.5.69.36-.03.32-.65-.04-.63-2.44.14-5.33-.48-6.93-2.48-.08-.1-.25-.02-.22.11h0Z"/>
              <path class="cls-39" d="m162,414.91c-2.55,4.98-8.46,7.44-13.88,5.55-5.66-1.98-8.77-8.02-7.22-13.72-.1-.05-.2-.1-.29-.17-1.66,5.91,1.44,12.44,7.3,14.49s11.77-.85,14.4-6.03c-.11-.03-.21-.06-.3-.11Z"/>
              <path class="cls-34" d="m148.1,420.49c-6.09-2.13-9.31-8.82-7.18-14.91,2.13-6.09,8.82-9.31,14.91-7.18s9.31,8.82,7.18,14.91c-2.13,6.09-8.82,9.31-14.91,7.18Zm7.63-21.78c-5.92-2.07-12.43,1.06-14.5,6.98-2.07,5.92,1.06,12.43,6.98,14.5,5.92,2.07,12.43-1.06,14.5-6.98s-1.06-12.43-6.98-14.5Z"/>
              <path class="cls-36" d="m148.62,419.02c-5.28-1.85-8.07-7.65-6.22-12.92,1.85-5.28,7.65-8.07,12.92-6.22s8.07,7.65,6.22,12.92-7.65,8.07-12.93,6.22Zm6.48-18.51c-4.93-1.73-10.34.88-12.07,5.81s.88,10.34,5.81,12.07c4.93,1.73,10.34-.88,12.07-5.81s-.88-10.34-5.81-12.07Z"/>
              <path class="cls-33" d="m148.76,418.6c-5.05-1.77-7.72-7.31-5.95-12.36s7.31-7.72,12.36-5.95,7.72,7.31,5.95,12.36c-1.77,5.05-7.31,7.72-12.36,5.95Zm6.2-17.71c-4.72-1.65-9.89.84-11.55,5.56s.84,9.89,5.56,11.55c4.72,1.65,9.89-.84,11.55-5.56s-.84-9.89-5.56-11.55Z"/>
              <path class="cls-36" d="m149,418.53c-.11.74-.28,1.47-.53,2.17-.02.06.07.09.09.03.28-.71.47-1.43.58-2.19.01-.09-.12-.1-.14,0h0Z"/>
              <path class="cls-36" d="m150.03,418.86c-.18.68-.37,1.37-.48,2.06-.01.06.09.08.11.02.2-.67.34-1.38.48-2.07.01-.06-.09-.08-.1-.02h0Z"/>
              <path class="cls-36" d="m153.29,398.12c-.07.75-.19,1.49-.42,2.21-.03.09.11.13.14.05.23-.73.38-1.48.4-2.25,0-.07-.11-.08-.12,0h0Z"/>
              <path class="cls-36" d="m154.2,398.42c-.28.62-.42,1.28-.37,1.96,0,.09.15.08.15,0-.03-.66.08-1.29.36-1.9.04-.09-.1-.13-.14-.05h0Z"/>
              <path class="cls-36" d="m140.43,409.93c.03-.1,1.01-.1,1.16-.1.3-.02.61-.03.91-.06.07,0,.07-.13,0-.13-.4.01-.79.04-1.19.07-.23.01-.64-.04-.86.07-.16.08-.2.3.03.26.02,0,.04-.02.04-.04,0-.01,0-.02,0-.04,0-.05-.08-.07-.09-.02h0Z"/>
              <path class="cls-36" d="m140.52,410.64c.34-.14.68-.24,1.04-.29.36-.05.72-.02,1.08-.03.03,0,.05-.06.01-.07-.7-.18-1.52.03-2.16.32-.04.02-.01.09.03.07h0Z"/>
              <path class="cls-36" d="m161.41,409.19c.58,0,1.16-.05,1.74-.1.07,0,.06-.12,0-.12-.58.03-1.16.06-1.73.13-.05,0-.04.09,0,.09h0Z"/>
              <path class="cls-36" d="m161.32,410.01c.75-.18,1.51-.23,2.26-.38.04,0,.03-.06,0-.06-.75-.02-1.54.17-2.27.35-.06.01-.04.11.02.1h0Z"/>
              <path class="cls-32" d="m140.11,393.24c-11.72,4.12-21.65,12.17-29.87,21.33-2.4,2.67-4.57,5.49-6.72,8.36-.15.2.16.4.31.22,7.75-9.51,16.6-18.7,27.36-24.79,2.79-1.58,5.71-2.93,8.73-4.03-.07-.36,0-.75.19-1.08Z"/>
              <path class="cls-46" d="m103.52,423.37c-.18,2.82.65,5.49,2.27,7.8.17.25.55-.06.36-.31-1.62-2.13-2.39-4.81-2.29-7.47,0-.22-.33-.25-.35-.02h0Z"/>
              <path class="cls-46" d="m105.88,431.44c3.04.64,6.36.45,9.44.17,1.59-.14,3.17-.36,4.74-.67,1.58-.3,3.24-.61,4.74-1.19.43-.16.19-.84-.25-.75-1.51.31-2.99.78-4.51,1.08-1.52.3-3.05.53-4.59.68-1.55.16-3.11.24-4.67.26-1.6.02-3.19-.12-4.79-.08-.26,0-.41.43-.1.5h0Z"/>
              <path class="cls-46" d="m104.87,423.45c-.25,1.44,0,3.02.47,4.4.41,1.21,1.11,2.86,2.17,3.64.15.11.38-.07.29-.24-.32-.56-.8-1.02-1.14-1.57-.38-.61-.69-1.27-.92-1.95-.48-1.4-.55-2.78-.52-4.24,0-.22-.31-.24-.34-.02h0Z"/>
              <path class="cls-49" d="m104.91,423.35c3.27-3.12,6.72-6.04,10.36-8.71,1.86-1.37,3.77-2.67,5.72-3.91,1.86-1.18,3.86-2.16,5.68-3.38.2-.14-.02-.43-.22-.34-2.06.9-4.01,2.26-5.9,3.46-1.86,1.19-3.68,2.43-5.46,3.73-3.68,2.7-7.18,5.64-10.46,8.81-.2.19.08.52.28.33h0Z"/>
              <path class="cls-48" d="m126.74,406.14c-.42.35-.36,1.03.05,1.37.43.36,1.02.13,1.27-.32.25-.45.12-1.02-.37-1.25-.41-.19-1.18-.1-1.26.45,0,.07.08.14.14.1.28-.16.51-.35.86-.26.32.08.47.39.36.69-.1.27-.4.52-.69.36-.3-.16-.39-.65-.12-.87.18-.15-.05-.42-.23-.27h0Z"/>
              <path class="cls-49" d="m134.79,402.56c-1.04.47-2.05,1.08-3.04,1.59-1.2.62-2.57,1.14-3.65,1.94-.11.08-.02.3.12.25,1.33-.41,2.62-1.23,3.87-1.84.9-.44,1.86-.85,2.77-1.33-.07-.2-.09-.4-.07-.61Z"/>
              <path class="cls-48" d="m108.08,420.51c.07,2.89.61,6.19,2.09,8.73.04.07.13.02.11-.05-.52-1.41-1.12-2.75-1.48-4.23-.35-1.46-.53-2.94-.57-4.44,0-.09-.14-.1-.14,0h0Z"/>
              <path class="cls-48" d="m110.39,429.14c1.19.7,2.65.7,3.91.2.09-.04.02-.17-.07-.14-1.3.52-2.54.39-3.79-.16-.06-.03-.11.07-.05.1h0Z"/>
              <path class="cls-48" d="m112.5,416.11c-.36,4.4.11,8.8,1.47,13.01.04.13.25.09.21-.04-1.33-4.18-1.9-8.58-1.59-12.96,0-.06-.09-.06-.09,0h0Z"/>
              <path class="cls-42" d="m115.58,423.28c-.46.28-.52.95-.18,1.35.36.42.95.28,1.23-.14.29-.43.22-1.06-.33-1.23-.49-.15-1.24.18-1.18.77,0,.06.1.06.11,0,.11-.45.54-.8,1.03-.65.47.14.51.68.27,1.03-.24.36-.74.51-1.05.14-.29-.34-.27-.96.13-1.2.04-.03,0-.1-.04-.07h0Z"/>
              <path class="cls-42" d="m116.9,423.81c3.55-.91,7.18-1.79,10.63-3.02.07-.03.03-.15-.04-.13-3.55.93-7.05,2.08-10.61,3.01-.08.02-.06.16.03.13h0Z"/>
              <path class="cls-48" d="m108.28,421.57c1.23-1.23,2.56-2.19,4.23-2.75.07-.02.02-.12-.05-.1-1.61.54-3.15,1.47-4.24,2.8-.03.03.03.08.06.05h0Z"/>
              <path class="cls-48" d="m103.66,423.3c.26.01.53.02.79.04.23.01.47.05.7.01.05,0,.06-.08,0-.1-.22-.06-.47-.04-.7-.05-.26,0-.53-.02-.79-.03-.08,0-.09.12,0,.12h0Z"/>
              <path class="cls-48" d="m127.22,405.95c0-2.22.49-4.2,1.44-6.15-.06.02-.12.05-.19.06-.99,1.84-1.46,4.01-1.4,6.08,0,.09.15.1.15,0Z"/>
              <path class="cls-32" d="m181.82,450.34c.36-12.41-.74-25-5.36-36.64-1.3-3.29-2.89-6.47-4.78-9.46-.32-.51-1.18-.11-.86.41,6.58,10.52,9.22,22.78,10.11,35.02.26,3.53.46,7.1.5,10.65,0,.24.37.27.38.03h0Z"/>
              <path class="cls-46" d="m181.26,450.49c-1.58,2.14-3.85,3.75-6.44,4.41-.3.08-.2.55.09.47,2.7-.79,5.02-2.36,6.64-4.68.13-.18-.15-.38-.29-.2h0Z"/>
              <path class="cls-46" d="m174.89,455.06c-1.19-.99-2.48-1.86-3.69-2.83-1.25-1.01-2.45-2.08-3.6-3.2-1.07-1.05-2.1-2.15-3.07-3.29-1.04-1.21-1.93-2.54-2.95-3.77-.28-.34-.89.03-.66.43.79,1.35,1.86,2.59,2.87,3.78,1.06,1.25,2.19,2.45,3.38,3.58,2.23,2.14,4.71,4.35,7.49,5.75.27.14.43-.28.23-.45h0Z"/>
              <path class="cls-46" d="m180.15,449.72c-.89,1.17-1.8,2.2-3.05,2.99-.58.36-1.19.68-1.83.91-.65.24-1.35.31-1.98.56-.18.07-.12.36.07.37,1.32.05,2.89-.8,3.97-1.49,1.22-.78,2.4-1.87,3.11-3.15.1-.19-.15-.37-.28-.2h0Z"/>
              <path class="cls-49" d="m180.89,449.73c-.58-4.53-1.48-9.01-2.67-13.41-.58-2.13-1.23-4.24-1.94-6.33-.72-2.12-1.41-4.4-2.45-6.38-.1-.2-.46-.1-.39.13.66,2.09,1.61,4.11,2.33,6.19.75,2.18,1.43,4.39,2.03,6.62,1.18,4.36,2.06,8.79,2.66,13.27.04.28.46.19.42-.08h0Z"/>
              <path class="cls-48" d="m173.79,422.81c.07.34-.3.67-.64.6-.32-.06-.4-.44-.31-.71.1-.31.41-.45.71-.32.32.14.39.44.5.74.03.07.14.08.17.01.28-.46-.25-1.01-.67-1.13-.53-.15-1.01.21-1.1.73-.09.5.21,1.03.76,1.04.54,0,1.03-.5.92-1.04-.05-.22-.39-.16-.35.07h0Z"/>
              <path class="cls-49" d="m173.11,421.85c-.35-1.3-1.1-2.56-1.64-3.79-.59-1.32-1.1-2.77-1.86-4-.11-.18-.48-.12-.4.13.42,1.34,1.17,2.65,1.77,3.92.6,1.26,1.09,2.7,1.88,3.86.08.12.29.01.25-.12h0Z"/>
              <path class="cls-48" d="m179.65,445.53c-.97,1.15-2.03,2.19-3.22,3.11-1.2.93-2.5,1.6-3.79,2.38-.07.04-.02.14.05.11,2.74-1.06,5.21-3.3,7.07-5.52.06-.07-.06-.15-.12-.08h0Z"/>
              <path class="cls-48" d="m172.59,450.81c-1.32-.35-2.37-1.03-3.06-2.24-.05-.08-.19-.02-.14.07.66,1.18,1.81,2.09,3.18,2.29.06,0,.08-.09.02-.11h0Z"/>
              <path class="cls-48" d="m178.98,439.36c-2.49,3.62-5.68,6.7-9.33,9.14-.11.08.02.23.14.16,3.69-2.43,6.81-5.59,9.27-9.25.03-.05-.04-.1-.07-.05h0Z"/>
              <path class="cls-42" d="m172.1,443.13c.16.44-.21.94-.65,1.02-.47.09-.77-.33-.73-.77.04-.43.4-.82.86-.64.47.19.59.73.4,1.15-.02.05.05.11.09.06.41-.42.03-1.15-.45-1.34-.53-.21-.98.24-1.02.76-.04.51.33.99.88.88.52-.1.89-.66.7-1.17-.02-.05-.09-.01-.07.04h0Z"/>
              <path class="cls-42" d="m170.91,442.6c-2.2-2.95-4.22-6.03-6.42-8.97-.05-.06-.15,0-.11.07,1.93,3.12,4.22,6.06,6.42,8.99.05.07.16-.02.1-.09h0Z"/>
              <path class="cls-48" d="m179.02,446.31c-.02-1.71-.64-3.41-1.57-4.83-.04-.06-.14-.01-.1.05.95,1.48,1.39,3.06,1.59,4.79,0,.04.08.04.08,0h0Z"/>
              <path class="cls-48" d="m181.55,450.44c-.21-.16-.42-.31-.63-.47-.19-.14-.36-.3-.57-.4-.05-.02-.09.04-.06.08.15.17.37.29.55.43.21.15.43.31.64.46.06.05.13-.05.07-.1h0Z"/>
              <path class="cls-48" d="m176.56,416.76c-.48,2.04-1.32,3.85-2.67,5.53-.06.07.06.15.12.08,1.3-1.53,2.26-3.45,2.66-5.44-.04-.06-.08-.12-.11-.17Z"/>
              <path class="cls-35" d="m163.94,364.88c1.58,1.52,3.91,2.49,6.13,2.23.08,0,.07-.13,0-.13-2.3-.03-4.3-.62-6.04-2.18-.05-.04-.13.04-.08.09h0Z"/>
              <path class="cls-37" d="m151.22,451c-8.99-.35-17.67-3.69-24.9-8.97-.14.22-.34.39-.58.52-.02,0-.03.01-.05.02,7.37,5.43,16.28,8.88,25.47,9.24.51.02.57-.78.05-.8Z"/>
              <path class="cls-42" d="m103.19,444.14c3.97-2.65,7.73-5.55,11.91-7.88,4.13-2.29,8.36-4.19,12.81-5.76.22-.08.1-.47-.13-.4-4.51,1.42-8.88,3.49-12.95,5.89-4.05,2.39-8.16,4.97-11.73,8.04-.07.06.02.16.09.11h0Z"/>
              <path class="cls-42" d="m103.15,444.06c-.51,1.7-.49,3.65-.42,5.4.07,1.88.31,3.75.62,5.6.69,4.14,1.51,8.26,2.28,12.38.05.29.51.2.45-.09-.75-3.98-1.53-7.96-2.23-11.95-.31-1.79-.58-3.59-.71-5.4-.15-2.01.06-3.92.18-5.91,0-.1-.14-.13-.17-.04h0Z"/>
              <path class="cls-42" d="m105.94,467.83c.51.97,1.26,1.68,2.22,2.22.81.45,1.98.93,2.93.71.26-.06.32-.45.04-.54-.88-.29-1.77-.3-2.63-.73-.87-.44-1.62-1.11-2.26-1.85-.13-.15-.39,0-.3.19h0Z"/>
              <path class="cls-31" d="m111.41,470.74c.91-3,1.65-6.04,2.5-9.06.84-3.02,1.8-6.01,2.62-9.03.06-.2-.24-.31-.31-.11-.99,2.97-1.79,6.02-2.62,9.03-.84,3.02-1.71,6.05-2.34,9.11-.02.1.13.16.16.06h0Z"/>
              <path class="cls-31" d="m115.9,452.77c3.99-4.44,8.1-8.79,12.69-12.62.2-.17-.07-.48-.26-.3-4.47,4-8.82,8.15-12.61,12.8-.09.11.09.23.19.13h0Z"/>
              <path class="cls-31" d="m131.9,432.55c-1.54,2.27-2.67,4.85-3.51,7.45-.05.17.21.26.26.09.82-2.64,2.01-5.06,3.39-7.44.05-.09-.08-.19-.14-.1h0Z"/>
              <path class="cls-23" d="m127.49,430.22c1.97-.15,3.85.41,4.28,2.54.03.14.25.13.25-.02.05-2.3-2.8-2.93-4.56-2.69-.11.01-.07.17.03.16h0Z"/>
              <path class="cls-23" d="m110.82,449.9c.78-.83,1.44-1.76,2.22-2.6.78-.83,1.59-1.63,2.41-2.42,1.62-1.55,3.35-2.99,5.14-4.34,1.8-1.37,3.67-2.65,5.56-3.88.98-.64,1.97-1.26,2.96-1.88.96-.6,1.99-1.14,2.89-1.83.35-.27-.03-.82-.41-.64-1.06.52-2.06,1.25-3.06,1.88-.89.56-1.77,1.13-2.65,1.71-1.97,1.29-3.91,2.63-5.78,4.06-1.82,1.39-3.57,2.87-5.21,4.48-.77.75-1.49,1.56-2.19,2.38-.76.89-1.58,1.81-2.16,2.83-.1.18.12.43.29.26h0Z"/>
              <path class="cls-23" d="m110.35,449.64c-.42,1.59-.45,3.33-.54,4.96-.1,1.8-.15,3.58-.11,5.38.09,3.43.32,7,1.09,10.35.1.42.71.3.65-.13-.51-3.45-1.05-6.83-1.17-10.33-.06-1.65-.07-3.31,0-4.95.07-1.74.38-3.49.37-5.23,0-.16-.25-.24-.3-.06h0Z"/>
              <path class="cls-42" d="m103.21,444.34c.89,1.29,2.01,2.41,3.24,3.37.6.47,1.23.9,1.89,1.29.6.36,1.31.9,2.03.92.34,0,.56-.39.33-.66-.45-.52-1.19-.75-1.78-1.1-.62-.36-1.21-.76-1.79-1.18-1.25-.9-2.37-1.95-3.48-3.02-.27-.26-.65.07-.44.37h0Z"/>
              <path class="cls-31" d="m132.77,436.03c.96-1.83,1.58-3.74.71-5.72-.71-1.62-2.3-2.88-4.12-2.82-1.83.06-3.87,1.39-4.1,3.31-.03.26.38.35.46.09.63-1.99,2.62-3.37,4.73-2.66,1.89.63,3.04,2.78,2.79,4.71-.29,2.24-2.03,3.97-2.54,6.15-.26,1.12-.13,2.43-1.27,3.09-1.01.58-2.16.17-2.81-.7-.13.26-.34.49-.6.62,1.05,1.32,2.96,1.58,4.25.33.72-.7.85-1.58.98-2.53.19-1.41.89-2.61,1.54-3.86Z"/>
              <path class="cls-42" d="m103.02,450.01c.55,1.09,1.51,1.87,2.64,2.3.09.03.14-.11.05-.14-1.13-.42-1.98-1.18-2.63-2.19-.02-.04-.09-.01-.07.03h0Z"/>
              <path class="cls-42" d="m105.57,452.33c.42,2.58.81,5.13.96,7.74,0,.11.17.11.16-.01-.16-2.59-.44-5.22-1.02-7.75-.02-.07-.12-.05-.11.02h0Z"/>
              <path class="cls-42" d="m104.07,458.2c.66.88,1.58,1.48,2.63,1.81.11.03.16-.13.06-.16-1.04-.32-1.88-.91-2.6-1.72-.05-.05-.12.01-.08.07h0Z"/>
              <path class="cls-42" d="m168.11,466.79c-.88-4.63-2.48-9.2-4.15-13.6-1.68-4.41-3.81-8.76-6.45-12.69-.13-.2-.48.02-.35.23,2.5,4,4.62,8.13,6.42,12.49,1.82,4.43,2.95,9.04,4.4,13.59.03.08.16.06.14-.03h0Z"/>
              <path class="cls-42" d="m167.89,466.7c-1.1,1.56-2.07,3.12-3.37,4.54-1.28,1.41-2.68,2.71-4.1,3.97-3.03,2.69-6.13,5.31-9.19,7.95-.22.19.07.54.3.35,3.17-2.75,6.38-5.45,9.5-8.26,1.36-1.22,2.69-2.5,3.89-3.88,1.18-1.36,2.45-2.91,3.13-4.59.04-.09-.1-.16-.16-.08h0Z"/>
              <path class="cls-23" d="m150.93,483.28c-.96.18-1.96.24-2.92.04-.94-.2-1.64-.74-2.51-1.07-.27-.1-.47.24-.31.45.6.76,1.81,1.11,2.73,1.27,1.08.18,2.11.09,3.12-.35.19-.08.08-.37-.11-.34h0Z"/>
              <path class="cls-31" d="m145.11,482.54c1.42-2.8,2.62-5.7,3.85-8.59,1.23-2.88,2.51-5.76,3.58-8.69.07-.2-.23-.3-.31-.11-1.25,2.87-2.36,5.81-3.58,8.69-1.22,2.88-2.54,5.73-3.7,8.64-.04.1.11.15.16.06h0Z"/>
              <path class="cls-31" d="m152.89,465.66c-.06-6-.88-11.96-1.87-17.87-.04-.25-.45-.18-.39.08,1.19,5.86,1.69,11.82,2.04,17.78,0,.14.23.16.23.02h0Z"/>
              <path class="cls-31" d="m152.59,439.84c-.41,2.73-.99,5.36-2,7.93-.06.17.2.26.26.09.97-2.55,1.7-5.28,1.91-8.01,0-.11-.15-.12-.17-.01h0Z"/>
              <path class="cls-31" d="m157.78,440.68c-1.22-1.29-3.85-2.58-5.24-.75-.09.12.08.26.19.17,1.67-1.4,3.48-.66,4.93.68.07.07.2-.03.12-.1h0Z"/>
              <path class="cls-23" d="m158.8,466.54c.32-2.13.11-4.52-.13-6.65-.27-2.32-.73-4.62-1.29-6.88-.56-2.24-1.23-4.45-1.94-6.64-.34-1.04-.69-2.08-1.05-3.12-.39-1.12-.71-2.31-1.22-3.38-.18-.38-.83-.19-.72.24.26,1.05.71,2.08,1.07,3.1.4,1.15.8,2.29,1.18,3.45.71,2.15,1.37,4.31,1.93,6.51.55,2.17,1.01,4.38,1.31,6.6.14,1.08.28,2.17.37,3.26.09,1.18.03,2.37.13,3.55.02.23.35.18.38-.02h0Z"/>
              <path class="cls-23" d="m158.68,466.52c-1.06,1.31-1.9,2.83-2.89,4.2-1,1.37-2.07,2.7-3.18,3.99-2.27,2.66-4.8,4.97-7.35,7.35-.31.29.1.77.43.51,2.69-2.13,5.11-4.78,7.31-7.41,1.13-1.34,2.17-2.73,3.19-4.16.98-1.37,2.08-2.79,2.76-4.34.07-.17-.17-.26-.27-.14h0Z"/>
              <path class="cls-42" d="m167.72,466.4c-1.53.14-3.06.26-4.6.19-.71-.03-1.43-.09-2.13-.19-.68-.1-1.4-.38-2.08-.25-.35.07-.42.52-.15.72.55.41,1.36.44,2.02.53.8.11,1.61.18,2.42.19,1.56.01,3.13-.16,4.63-.62.35-.11.26-.6-.11-.57h0Z"/>
              <path class="cls-31" d="m158.36,437.93c-1.16-1.35-3.07-1.69-4.71-1.12-2.03.7-3.11,2.42-3.57,4.44-.27,1.2-.4,2.43-.81,3.59-.38,1.06-1.27,1.95-1.38,3.1-.19,2.03,1.59,3.45,3.46,3.07-.05-.07-.1-.14-.14-.22-.1-.19-.13-.4-.13-.61-.98.15-1.98-.27-2.37-1.26-.47-1.17.38-2.1.87-3.08,1.02-2.05.72-4.54,1.91-6.52.99-1.63,3.16-2.59,5.01-1.98,2.16.71,2.9,3.09,2.14,5.07-.09.24.27.44.41.21.92-1.49.37-3.45-.7-4.7Z"/>
              <path class="cls-42" d="m164.41,471.45c-1.13.39-2.27.45-3.42.07-.09-.03-.14.11-.05.14,1.15.37,2.39.36,3.5-.15.04-.02.01-.08-.03-.07h0Z"/>
              <path class="cls-42" d="m160.93,471.65c-2.03,1.62-3.89,3.5-5.63,5.42-.08.09.04.19.12.11,1.75-1.94,3.64-3.7,5.58-5.45.05-.05-.02-.13-.07-.08h0Z"/>
              <path class="cls-42" d="m158.49,477.16c-1.07.18-2.09.11-3.11-.28-.1-.04-.16.12-.06.16,1.02.39,2.12.5,3.19.22.07-.02.05-.12-.02-.11h0Z"/>
              <path class="cls-48" d="m119.04,450.03c2.12,1.99,4.87,3.52,7.42,4.88,2.59,1.38,5.27,2.59,8.02,3.6,2.81,1.03,5.7,1.86,8.62,2.48,1.38.29,2.77.54,4.17.74,1.52.22,3.14.51,4.69.45.5-.02.55-.69.05-.77-1.44-.25-2.94-.28-4.39-.48-1.52-.21-3.03-.47-4.53-.79-2.78-.6-5.52-1.39-8.2-2.36-2.73-.99-5.4-2.17-7.97-3.54-1.3-.69-2.58-1.42-3.83-2.2-1.25-.77-2.45-1.65-3.73-2.37-.22-.12-.55.16-.33.36h0Z"/>
              <path class="cls-42" d="m132.9,437.8c-.73.12-.79,1.19-.49,1.7.38.64,1.2.67,1.73.21.54-.47.66-1.3.11-1.81-.46-.43-1.47-.58-1.82.07-.05.1.03.21.14.17.41-.17.85-.28,1.26-.01.43.29.43.82.08,1.17-.32.33-.87.38-1.1-.08-.22-.44-.04-.78.25-1.1.12-.13.04-.35-.15-.32h0Z"/>
              <path class="cls-42" d="m134.03,439.04c3.45,3.37,8.13,5.26,12.95,5.21.29,0,.32-.45.03-.45-4.71.06-9.3-1.73-12.72-4.98-.16-.15-.42.07-.26.22h0Z"/>
              <path class="cls-42" d="m147.66,442.72c-.67.26-1.1,1.09-.72,1.76.34.6,1.12.68,1.55.13.34-.43.7-1.43.27-1.89-.35-.39-1.43-.36-1.63.18-.02.07.01.15.08.17.32.1.63-.15.96-.12.52.04.24.77.1,1.08-.16.35-.57.71-.89.28-.36-.48.12-.98.45-1.3.14-.14,0-.35-.18-.28h0Z"/>
              <path class="cls-48" d="m116.68,452.5c1.88,1.66,4.2,2.97,6.38,4.19,2.15,1.2,4.36,2.29,6.63,3.24,4.57,1.92,9.36,3.33,14.25,4.18,2.85.5,5.72.8,8.61.92.21,0,.24-.32.02-.33-10.02-.39-19.9-3.11-28.7-7.91-1.2-.66-2.39-1.35-3.55-2.07-1.2-.75-2.35-1.61-3.57-2.33-.07-.04-.13.05-.07.11h0Z"/>
              <path class="cls-48" d="m119.13,454.24c.48-1.01.88-2.08,1.3-3.12.06-.14-.16-.21-.22-.08-.43,1.04-.9,2.07-1.28,3.13-.04.12.14.18.19.07h0Z"/>
              <path class="cls-48" d="m120.84,450.77c2.51-2.27,5.06-4.46,7.68-6.59.12-.1-.03-.28-.15-.18-2.65,2.08-5.21,4.31-7.62,6.66-.07.07.03.18.1.12h0Z"/>
              <path class="cls-48" d="m149.69,461.58c-.19.95-.35,1.86-.74,2.76-.12.27.32.42.43.15.37-.9.67-1.91.62-2.89-.01-.21-.28-.22-.32-.02h0Z"/>
              <path class="cls-48" d="m148.25,451.28c.85,1.52.93,3.29,1.11,4.98.21,1.96.39,3.88.47,5.84,0,.07.12.12.14.03.17-.82.08-1.68,0-2.51-.11-1.08-.24-2.16-.37-3.24-.21-1.75-.3-3.6-1.19-5.17-.05-.09-.19-.02-.14.07h0Z"/>
              <path class="cls-48" d="m132.88,460.75c.05-.27.13-.53.24-.78.11-.25.28-.46.39-.71.02-.05-.05-.1-.09-.06-.41.35-.6,1.01-.68,1.52-.01.08.13.11.14.03h0Z"/>
              <path class="cls-48" d="m133.48,459.25c1.27.63,2.63,1.12,3.98,1.56.38.12,1.74.33,1.87.69.05.13-.21.64-.25.77-.07.27-.11.55-.15.83-.02.16.22.17.24.02.1-.62.25-1.2.49-1.78.03-.06-.01-.15-.08-.16-2.07-.58-4.05-1.32-6.06-2.09-.12-.04-.17.12-.06.18h0Z"/>
              <path class="cls-48" d="m133.62,447.07c-.51.96-1.18,2.02-1.48,3.06-.03.09.09.16.15.08.63-.89,1.04-2.06,1.48-3.07.04-.08-.1-.16-.15-.07h0Z"/>
              <path class="cls-48" d="m131.88,450.42c1.22,1.46,3.17,2.31,5.04,2.52.17.02.18-.24.02-.26-1.96-.25-3.46-1.12-4.92-2.4-.08-.07-.2.06-.13.14h0Z"/>
              <path class="cls-48" d="m137.09,453.07c.65-1.23,1.13-2.57,1.67-3.85.05-.12-.14-.19-.19-.07-.54,1.27-1.17,2.55-1.6,3.86-.02.07.08.13.12.06h0Z"/>
              <path class="cls-48" d="m137.94,451.39c.21.07.41.15.62.18.03,0,.05-.05.02-.07-.19-.11-.4-.17-.6-.25-.08-.03-.13.1-.04.13h0Z"/>
              <path class="cls-48" d="m138.23,451.48c1.04.64,2.15,1.06,3.35,1.26.15.02.16-.21.02-.23-1.17-.18-2.24-.58-3.25-1.19-.11-.07-.23.1-.12.17h0Z"/>
              <path class="cls-48" d="m141.85,452.72c.52-.68.71-1.55.67-2.39,0-.14-.23-.16-.23-.02.04.84-.19,1.57-.59,2.3-.05.1.08.19.15.1h0Z"/>
              <path class="cls-39" d="m166.55,426.75c-4.38,3.68-10.72,3.51-16.01,2.27-5.85-1.38-11.6-4.14-16.14-8.09-1.94-1.69-3.92-3.77-4.68-6.29-.07-.25-.47-.17-.4.08.66,2.22,2.17,4.14,3.8,5.73,2.14,2.08,4.63,3.8,7.25,5.23,5.49,3.01,11.92,5.18,18.26,4.71,2.87-.21,5.69-1.07,7.98-2.83-.09-.25-.11-.53-.05-.79Z"/>
              <path class="cls-42" d="m166.68,426.39c-4.38,3.68-10.72,3.51-16.01,2.27-5.85-1.38-11.6-4.14-16.14-8.09-1.94-1.69-3.92-3.77-4.68-6.29-.07-.25-.47-.17-.4.08.66,2.22,2.17,4.14,3.8,5.73,2.14,2.09,4.63,3.8,7.25,5.23,5.49,3.01,11.92,5.17,18.26,4.71,2.87-.21,5.69-1.07,7.98-2.83-.09-.25-.11-.53-.05-.79Z"/>
              <path class="cls-42" d="m168.13,386.23c-.28,5.51-.51,10.99-1.13,16.47-.63,5.51-1.53,11-2.67,16.43-.64,3.04-1.37,6.07-2.17,9.07-.03.1.13.16.15.05,2.85-10.65,4.68-21.56,5.49-32.55.23-3.15.44-6.32.41-9.47,0-.05-.07-.05-.07,0h0Z"/>
              <path class="cls-42" d="m161.8,430.45c-.48,1.53-.94,3.07-1.48,4.58-.54,1.51-1.23,2.97-1.77,4.48-.01.04.05.08.07.04.72-1.37,1.24-2.87,1.77-4.32.56-1.56,1.1-3.14,1.5-4.74.01-.06-.07-.09-.09-.03h0Z"/>
              <path class="cls-42" d="m163.83,364.58c-7.96,6.5-14.55,14.49-20.25,23-5.62,8.4-10.61,17.39-14.51,26.72-2.29,5.47-4.22,11.1-5.27,16.95-.09.51.71.56.8.05,1.82-10.2,6.24-19.85,11.09-28.94,4.68-8.77,10.04-17.23,16.38-24.91,3.68-4.46,7.8-8.62,12.28-12.27.4-.33-.12-.94-.52-.61h0Z"/>
              <path class="cls-42" d="m170.06,367.19c1.94,9.72,2.22,19.66,1.45,29.52-.39,4.96-1.03,9.9-1.83,14.8-.85,5.2-1.86,10.37-3.31,15.44-1.7,5.96-3.94,11.75-6.78,17.26-.23.45.42.91.66.46,5.01-9.7,7.99-20.12,9.85-30.85,1.72-9.9,2.84-19.95,2.59-30.01-.14-5.64-.73-11.25-1.83-16.78-.1-.51-.89-.35-.79.15h0Z"/>
            </g>
            <path class="cls-4" d="m164,366.83s-5.61,5.12-13.66,16.84c-9.05,13.17-15.96,27.82-20.77,43.04,1.06-.08,2.2-.13,3.08.45.52.34.89.86,1.21,1.38.74,1.22,1.16,2.66,1.06,4.1-.07.92-1.16,2.86-.48,3.62,0,0,2.85,3.15,4.93,3.88l4.32,1.51s12.21-38.45,16.74-54.99c4.54-16.54,4.57-18.69,4.57-18.69l-.99-1.15Z"/>
          </g>
        </g>
      </g>
    </g>
  </g>
</svg>
